<svg xmlns="http://www.w3.org/2000/svg" version="1.1" width="3840px" height="2160px" style="shape-rendering:geometricPrecision; text-rendering:geometricPrecision; image-rendering:optimizeQuality; fill-rule:evenodd; clip-rule:evenodd" xmlns:xlink="http://www.w3.org/1999/xlink">
<g><path style="opacity:0.991" fill="#1f1c1f" d="M 502.5,608.5 C 512.351,608.649 522.184,608.649 532,608.5C 566.576,610.678 600.743,615.845 634.5,624C 641.898,625.91 649.065,628.41 656,631.5C 672.399,717.157 688.399,802.823 704,888.5C 620.167,831.333 536.333,774.167 452.5,717C 417.028,692.361 381.695,667.528 346.5,642.5C 367.972,633.066 390.306,625.9 413.5,621C 443.006,614.618 472.673,610.451 502.5,608.5 Z"/></g>
<g><path style="opacity:0.991" fill="#1f1c1f" d="M 700.5,647.5 C 800.182,690.683 876.182,759.85 928.5,855C 894.941,904.228 861.775,953.728 829,1003.5C 813.056,1027.11 796.723,1050.44 780,1073.5C 752.755,931.706 726.255,789.706 700.5,647.5 Z"/></g>
<g><path style="opacity:0.991" fill="#1f1c1f" d="M 297.5,663.5 C 371.268,713.42 444.935,763.587 518.5,814C 376.72,843.022 234.387,871.356 91.5,899C 89.5,899.667 87.5,899.667 85.5,899C 128.729,795.643 199.396,717.143 297.5,663.5 Z"/></g>
<g><path style="opacity:0.99" fill="#1f1c1f" d="M 946.5,890.5 C 984.167,890.5 1021.83,890.5 1059.5,890.5C 1078.93,1000.8 1098.93,1110.97 1119.5,1221C 1084.83,1221.5 1050.17,1221.67 1015.5,1221.5C 1012.62,1199.85 1009.79,1178.18 1007,1156.5C 1006,1155.83 1005,1155.17 1004,1154.5C 962,1154.5 920,1154.5 878,1154.5C 877,1155.17 876,1155.83 875,1156.5C 863.294,1178.08 851.46,1199.58 839.5,1221C 809.168,1221.5 778.835,1221.67 748.5,1221.5C 748.351,1220.45 748.517,1219.45 749,1218.5C 815.107,1109.28 880.941,999.944 946.5,890.5 Z M 984.5,955.5 C 989.812,1001.29 994.479,1047.29 998.5,1093.5C 969.165,1093.67 939.831,1093.5 910.5,1093C 935.306,1047.22 959.973,1001.39 984.5,955.5 Z"/></g>
<g><path style="opacity:0.99" fill="#1f1c1f" d="M 1273.5,890.5 C 1334.5,890.333 1395.5,890.5 1456.5,891C 1513.42,895.905 1540.25,926.738 1537,983.5C 1529.99,1034.49 1503.16,1070.66 1456.5,1092C 1431.48,1099.28 1405.98,1102.78 1380,1102.5C 1361.77,1102.09 1341.93,1102.09 1320.5,1102.5C 1312.53,1141.86 1304.36,1181.19 1296,1220.5C 1265.24,1221.5 1234.41,1221.83 1203.5,1221.5C 1226.58,1111.09 1249.92,1000.75 1273.5,890.5 Z M 1352.5,952.5 C 1371.84,952.333 1391.17,952.5 1410.5,953C 1434.67,954.827 1445.17,967.661 1442,991.5C 1436.87,1021.29 1419.21,1036.96 1389,1038.5C 1371.03,1038.8 1352.86,1038.47 1334.5,1037.5C 1340.76,1009.22 1346.76,980.885 1352.5,952.5 Z"/></g>
<g><path style="opacity:0.988" fill="#1f1c1f" d="M 1649.5,890.5 C 1730.38,891.598 1811.22,891.598 1892,890.5C 1892.92,891.047 1893.76,891.713 1894.5,892.5C 1889.98,913.634 1885.14,934.634 1880,955.5C 1828.75,955.411 1777.42,955.078 1726,954.5C 1725.09,955.328 1724.42,956.328 1724,957.5C 1719.31,979.141 1714.81,1000.81 1710.5,1022.5C 1759.5,1022.5 1808.5,1022.5 1857.5,1022.5C 1852.85,1043.77 1848.52,1065.1 1844.5,1086.5C 1795.16,1086.17 1745.83,1086.5 1696.5,1087.5C 1691.32,1110.4 1686.65,1133.4 1682.5,1156.5C 1735.5,1156.5 1788.5,1156.5 1841.5,1156.5C 1837.55,1178.24 1833.22,1199.91 1828.5,1221.5C 1744.83,1221.5 1661.17,1221.5 1577.5,1221.5C 1600.5,1111.5 1623.5,1001.5 1646.5,891.5C 1647.79,891.737 1648.79,891.404 1649.5,890.5 Z"/></g>
<g><path style="opacity:0.99" fill="#1f1c1f" d="M 2003.5,890.5 C 2066.87,890.508 2130.04,890.508 2193,890.5C 2205.34,891.455 2217.51,893.621 2229.5,897C 2247.62,904.786 2258.79,918.286 2263,937.5C 2267.77,970.439 2259.77,999.772 2239,1025.5C 2217.38,1043.56 2192.55,1054.39 2164.5,1058C 2176.47,1058.29 2188.14,1060.29 2199.5,1064C 2213.81,1070.1 2221.64,1080.93 2223,1096.5C 2223.46,1120.55 2222.46,1144.55 2220,1168.5C 2219.24,1186.19 2219.4,1203.85 2220.5,1221.5C 2187.17,1221.5 2153.83,1221.5 2120.5,1221.5C 2120.33,1212.83 2120.5,1204.16 2121,1195.5C 2123.56,1170.53 2125.73,1145.53 2127.5,1120.5C 2128.61,1103.44 2120.61,1094.28 2103.5,1093C 2086.59,1092.18 2069.76,1092.34 2053,1093.5C 2043.84,1136.12 2035.01,1178.78 2026.5,1221.5C 1995.35,1221.99 1964.35,1221.49 1933.5,1220C 1957.02,1110.23 1980.36,1000.39 2003.5,890.5 Z M 2082.5,951.5 C 2098.7,951.643 2114.2,951.643 2129,951.5C 2140.02,951.705 2150.52,954.205 2160.5,959C 2170.04,967.061 2173.2,977.227 2170,989.5C 2163.18,1019.33 2144.51,1033.66 2114,1032.5C 2098.46,1032.05 2082.96,1031.71 2067.5,1031.5C 2067.17,1031 2066.83,1030.5 2066.5,1030C 2072.16,1003.88 2077.49,977.718 2082.5,951.5 Z"/></g>
<g><path style="opacity:0.991" fill="#1f1c1f" d="M 2353.5,890.5 C 2452.17,890.333 2550.83,890.5 2649.5,891C 2644.44,912.726 2639.78,934.559 2635.5,956.5C 2601.17,956.5 2566.83,956.5 2532.5,956.5C 2514.3,1044.86 2495.96,1133.19 2477.5,1221.5C 2446.5,1221.5 2415.5,1221.5 2384.5,1221.5C 2402.85,1133.24 2421.52,1045.08 2440.5,957C 2407.17,956.5 2373.83,956.333 2340.5,956.5C 2344.83,934.5 2349.17,912.5 2353.5,890.5 Z"/></g>
<g><path style="opacity:0.99" fill="#1f1c1f" d="M 2732.5,890.5 C 2763.51,890.167 2794.51,890.5 2825.5,891.5C 2812.51,951.788 2799.68,1012.12 2787,1072.5C 2783.63,1087.38 2781.13,1102.38 2779.5,1117.5C 2781.01,1140.7 2793.01,1155.2 2815.5,1161C 2858.69,1169.32 2889.19,1153.49 2907,1113.5C 2910.61,1103.68 2913.61,1093.68 2916,1083.5C 2929.44,1019.48 2942.94,955.475 2956.5,891.5C 2986.49,890.333 3016.49,890.167 3046.5,891C 3032.29,956.381 3018.46,1021.88 3005,1087.5C 2999.21,1116.73 2988.21,1143.73 2972,1168.5C 2948.61,1196.82 2918.78,1214.99 2882.5,1223C 2863.14,1227.16 2843.8,1229.66 2824.5,1230.5C 2818.62,1230.38 2812.79,1230.38 2807,1230.5C 2784.63,1229.92 2762.8,1226.09 2741.5,1219C 2702.65,1204.13 2683.65,1175.79 2684.5,1134C 2685.97,1114.69 2688.8,1095.52 2693,1076.5C 2706.23,1014.5 2719.4,952.5 2732.5,890.5 Z"/></g>
<g><path style="opacity:0.99" fill="#1f1c1f" d="M 3155.5,890.5 C 3218.87,890.508 3282.04,890.508 3345,890.5C 3359.21,891.342 3373.05,894.175 3386.5,899C 3403.85,908.709 3413.68,923.543 3416,943.5C 3418.38,971.305 3411.72,996.638 3396,1019.5C 3381.54,1034.99 3364.04,1045.82 3343.5,1052C 3334.39,1053.89 3325.39,1055.89 3316.5,1058C 3330.87,1057.94 3344.54,1060.94 3357.5,1067C 3368.01,1073.49 3373.84,1082.99 3375,1095.5C 3375.57,1120.55 3374.57,1145.55 3372,1170.5C 3371.26,1187.52 3371.42,1204.52 3372.5,1221.5C 3339.17,1221.5 3305.83,1221.5 3272.5,1221.5C 3273.34,1191.75 3275.51,1162.08 3279,1132.5C 3279.88,1123.77 3279.54,1115.1 3278,1106.5C 3273.74,1097.61 3266.57,1093.11 3256.5,1093C 3248,1092.83 3239.5,1092.67 3231,1092.5C 3222.1,1092.52 3213.44,1093.18 3205,1094.5C 3195.84,1136.78 3187.01,1179.11 3178.5,1221.5C 3147.5,1221.67 3116.5,1221.5 3085.5,1221C 3109.07,1110.9 3132.4,1000.74 3155.5,890.5 Z M 3234.5,951.5 C 3250.7,951.643 3266.2,951.643 3281,951.5C 3292.02,951.705 3302.52,954.205 3312.5,959C 3322.04,967.061 3325.2,977.227 3322,989.5C 3315.5,1018.34 3297.5,1032.67 3268,1032.5C 3252,1032.5 3236,1032.5 3220,1032.5C 3219.13,1031.89 3218.63,1031.06 3218.5,1030C 3224.41,1003.94 3229.75,977.773 3234.5,951.5 Z"/></g>
<g><path style="opacity:0.988" fill="#1f1c1f" d="M 3543.5,890.5 C 3624.38,891.598 3705.22,891.598 3786,890.5C 3786.75,891.126 3787.58,891.626 3788.5,892C 3783.89,913.256 3779.06,934.422 3774,955.5C 3722.75,955.411 3671.42,955.078 3620,954.5C 3619.33,955.167 3618.67,955.833 3618,956.5C 3613.18,978.448 3608.68,1000.45 3604.5,1022.5C 3653.5,1022.17 3702.5,1022.5 3751.5,1023.5C 3746.89,1044.37 3742.23,1065.21 3737.5,1086C 3688.5,1086.33 3639.5,1086.67 3590.5,1087C 3585.5,1110 3580.5,1133 3575.5,1156C 3628.83,1156.5 3682.17,1156.67 3735.5,1156.5C 3731.3,1178.19 3726.96,1199.86 3722.5,1221.5C 3638.83,1221.5 3555.17,1221.5 3471.5,1221.5C 3494.24,1111.45 3517.24,1001.45 3540.5,891.5C 3541.79,891.737 3542.79,891.404 3543.5,890.5 Z"/></g>
<g><path style="opacity:0.991" fill="#1f1c1f" d="M 326.5,893.5 C 328.199,893.34 329.866,893.506 331.5,894C 250.722,1017.26 169.389,1140.1 87.5,1262.5C 70.2647,1223.23 59.098,1182.23 54,1139.5C 45.5562,1073.38 50.8895,1008.38 70,944.5C 155.657,927.802 241.157,910.802 326.5,893.5 Z"/></g>
<g><path style="opacity:0.991" fill="#1f1c1f" d="M 257.5,1077.5 C 258.117,1077.61 258.617,1077.94 259,1078.5C 286.327,1223.6 312.494,1368.6 337.5,1513.5C 237.36,1470.69 161.027,1401.69 108.5,1306.5C 124.736,1280.37 141.236,1254.37 158,1228.5C 191.684,1178.45 224.851,1128.12 257.5,1077.5 Z"/></g>
<g><path style="opacity:0.991" fill="#1f1c1f" d="M 943.5,1258.5 C 945.5,1258.5 947.5,1258.5 949.5,1258.5C 906.642,1361.69 836.309,1440.36 738.5,1494.5C 671.821,1450.16 605.488,1405.33 539.5,1360C 531.547,1354.38 523.88,1348.38 516.5,1342C 659.123,1314.97 801.456,1287.14 943.5,1258.5 Z"/></g>
<g><path style="opacity:0.991" fill="#1f1c1f" d="M 334.5,1269.5 C 454.004,1349.09 572.671,1429.92 690.5,1512C 692.255,1512.72 693.089,1513.89 693,1515.5C 588.535,1556.64 484.702,1561.14 381.5,1529C 366.033,1442.49 350.366,1355.99 334.5,1269.5 Z"/></g>
<g><path style="opacity:0.959" fill="#1f1c1f" d="M 1827.5,1278.5 C 1848.2,1276.48 1867.87,1279.98 1886.5,1289C 1912.97,1307.11 1924.47,1332.28 1921,1364.5C 1914.86,1401.3 1893.36,1422.8 1856.5,1429C 1833.67,1432.8 1811.34,1428.8 1789.5,1417C 1765.12,1398.24 1754.95,1373.41 1759,1342.5C 1766.25,1304.41 1789.09,1283.08 1827.5,1278.5 Z M 1831.5,1295.5 C 1848.08,1293.98 1863.41,1297.81 1877.5,1307C 1896.12,1324.29 1902.62,1345.45 1897,1370.5C 1888.35,1398.34 1869.35,1412.68 1840,1413.5C 1813.97,1413 1795.64,1401 1785,1377.5C 1776,1350.14 1781.83,1326.64 1802.5,1307C 1811.42,1301.09 1821.09,1297.25 1831.5,1295.5 Z"/></g>
<g><path style="opacity:0.96" fill="#1f1c1f" d="M 2803.5,1278.5 C 2824.54,1276.38 2844.54,1279.88 2863.5,1289C 2890.81,1307.53 2902.31,1333.37 2898,1366.5C 2892.5,1397.66 2874.67,1417.82 2844.5,1427C 2823.52,1432.33 2802.19,1431.33 2780.5,1424C 2750.81,1410.48 2735.81,1387.31 2735.5,1354.5C 2737.51,1310.5 2760.17,1285.17 2803.5,1278.5 Z M 2808.5,1295.5 C 2831.01,1293.28 2849.84,1300.62 2865,1317.5C 2877.62,1338.34 2879.29,1360 2870,1382.5C 2863.41,1395.76 2853.07,1404.76 2839,1409.5C 2815.89,1416.7 2794.72,1412.87 2775.5,1398C 2757.29,1376.62 2753.46,1352.78 2764,1326.5C 2773.51,1308.48 2788.34,1298.15 2808.5,1295.5 Z"/></g>
<g><path style="opacity:0.956" fill="#1f1c1f" d="M 3666.5,1278.5 C 3683.2,1277.27 3699.54,1279.1 3715.5,1284C 3732.58,1290.37 3741.75,1302.54 3743,1320.5C 3735.9,1320.64 3728.73,1320.98 3721.5,1321.5C 3717.96,1306.8 3708.63,1298.63 3693.5,1297C 3684.4,1295.75 3675.4,1295.42 3666.5,1296C 3654.52,1297.06 3645.35,1302.56 3639,1312.5C 3634.63,1324.59 3638.46,1332.76 3650.5,1337C 3672.41,1341.43 3694.41,1345.43 3716.5,1349C 3739.87,1354.23 3750.03,1368.73 3747,1392.5C 3744.51,1403.31 3738.68,1411.81 3729.5,1418C 3715,1425.97 3699.5,1430.13 3683,1430.5C 3674.3,1430.07 3664.8,1429.23 3654.5,1428C 3628.4,1423.73 3613.73,1408.57 3610.5,1382.5C 3618.17,1382.5 3625.83,1382.5 3633.5,1382.5C 3635.32,1397.5 3643.66,1406.66 3658.5,1410C 3675.55,1414.24 3692.55,1413.57 3709.5,1408C 3722.21,1402.41 3727.37,1392.91 3725,1379.5C 3719.02,1371.26 3710.85,1366.76 3700.5,1366C 3682.75,1363.84 3665.09,1361.18 3647.5,1358C 3616.52,1348.42 3608.02,1328.92 3622,1299.5C 3626.97,1293.2 3633.14,1288.37 3640.5,1285C 3649.07,1281.86 3657.73,1279.69 3666.5,1278.5 Z"/></g>
<g><path style="opacity:0.949" fill="#1f1c1f" d="M 1057.5,1282.5 C 1064.83,1282.5 1072.17,1282.5 1079.5,1282.5C 1079.5,1324.83 1079.5,1367.17 1079.5,1409.5C 1107.17,1409.5 1134.83,1409.5 1162.5,1409.5C 1162.5,1415.17 1162.5,1420.83 1162.5,1426.5C 1127.5,1426.5 1092.5,1426.5 1057.5,1426.5C 1057.5,1378.5 1057.5,1330.5 1057.5,1282.5 Z"/></g>
<g><path style="opacity:0.957" fill="#1f1c1f" d="M 1321.5,1282.5 C 1330.42,1282.18 1339.25,1282.52 1348,1283.5C 1372.76,1330.68 1397.26,1378.01 1421.5,1425.5C 1413.52,1426.66 1405.52,1426.83 1397.5,1426C 1391.13,1413.42 1384.63,1400.92 1378,1388.5C 1349.14,1389.45 1320.14,1389.45 1291,1388.5C 1284.37,1400.92 1277.87,1413.42 1271.5,1426C 1263.5,1426.67 1255.5,1426.67 1247.5,1426C 1272.32,1378.19 1296.99,1330.36 1321.5,1282.5 Z M 1334.5,1301.5 C 1346.39,1324.28 1358.06,1347.28 1369.5,1370.5C 1346.17,1371.67 1322.84,1371.83 1299.5,1371C 1311.31,1347.88 1322.97,1324.72 1334.5,1301.5 Z"/></g>
<g><path style="opacity:0.957" fill="#1f1c1f" d="M 1520.5,1282.5 C 1549.17,1282.33 1577.84,1282.5 1606.5,1283C 1638.22,1285.96 1650.06,1302.8 1642,1333.5C 1640.26,1337.24 1637.76,1340.41 1634.5,1343C 1629.41,1346.21 1624.08,1348.88 1618.5,1351C 1644.39,1357.25 1654.22,1373.42 1648,1399.5C 1642.52,1411.65 1633.35,1419.48 1620.5,1423C 1613.74,1424.66 1606.91,1425.83 1600,1426.5C 1573.66,1426.64 1547.16,1426.47 1520.5,1426C 1520.51,1378.37 1520.51,1330.54 1520.5,1282.5 Z M 1542.5,1299.5 C 1563.88,1299.06 1585.21,1299.56 1606.5,1301C 1617.34,1303.01 1623.01,1309.51 1623.5,1320.5C 1623.59,1331.58 1618.26,1338.41 1607.5,1341C 1585.88,1342.44 1564.21,1342.94 1542.5,1342.5C 1542.5,1328.17 1542.5,1313.83 1542.5,1299.5 Z M 1542.5,1359.5 C 1561.5,1359.33 1580.5,1359.5 1599.5,1360C 1620.75,1361.56 1629.58,1372.73 1626,1393.5C 1623.19,1400.66 1618.03,1405.16 1610.5,1407C 1606.23,1408.03 1601.89,1408.7 1597.5,1409C 1579.17,1409.5 1560.84,1409.67 1542.5,1409.5C 1542.5,1392.83 1542.5,1376.17 1542.5,1359.5 Z"/></g>
<g><path style="opacity:0.954" fill="#1f1c1f" d="M 2033.5,1282.5 C 2063.17,1282.33 2092.84,1282.5 2122.5,1283C 2153.18,1286.31 2165.01,1302.81 2158,1332.5C 2152.09,1344.89 2142.26,1352.05 2128.5,1354C 2139.25,1354.61 2146.75,1359.78 2151,1369.5C 2154.98,1388.55 2159.14,1407.55 2163.5,1426.5C 2155.91,1426.81 2148.41,1426.48 2141,1425.5C 2137.16,1410.3 2133.83,1394.97 2131,1379.5C 2127.01,1368.74 2119.18,1363.24 2107.5,1363C 2090.17,1362.5 2072.84,1362.33 2055.5,1362.5C 2055.5,1383.83 2055.5,1405.17 2055.5,1426.5C 2048.17,1426.5 2040.83,1426.5 2033.5,1426.5C 2033.5,1378.5 2033.5,1330.5 2033.5,1282.5 Z M 2055.5,1299.5 C 2075.5,1299.33 2095.5,1299.5 2115.5,1300C 2134.21,1302.56 2141.04,1313.06 2136,1331.5C 2133.2,1337.83 2128.37,1341.66 2121.5,1343C 2117.56,1343.99 2113.56,1344.66 2109.5,1345C 2091.5,1345.5 2073.5,1345.67 2055.5,1345.5C 2055.5,1330.17 2055.5,1314.83 2055.5,1299.5 Z"/></g>
<g><path style="opacity:0.956" fill="#1f1c1f" d="M 2332.5,1282.5 C 2341.19,1282.17 2349.86,1282.5 2358.5,1283.5C 2383.34,1330.98 2407.68,1378.65 2431.5,1426.5C 2423.49,1426.67 2415.49,1426.5 2407.5,1426C 2401.13,1413.42 2394.63,1400.92 2388,1388.5C 2359.14,1389.45 2330.14,1389.45 2301,1388.5C 2294.83,1400.83 2288.67,1413.17 2282.5,1425.5C 2274.5,1426.83 2266.5,1426.83 2258.5,1425.5C 2282.92,1377.65 2307.59,1329.98 2332.5,1282.5 Z M 2344.5,1301.5 C 2356.85,1324.37 2368.85,1347.54 2380.5,1371C 2357.16,1371.83 2333.83,1371.67 2310.5,1370.5C 2322.12,1347.6 2333.45,1324.6 2344.5,1301.5 Z"/></g>
<g><path style="opacity:0.972" fill="#1f1c1f" d="M 2499.5,1282.5 C 2547.83,1282.5 2596.17,1282.5 2644.5,1282.5C 2644.81,1288.43 2644.47,1294.26 2643.5,1300C 2623.17,1300.5 2602.84,1300.67 2582.5,1300.5C 2582.5,1342.5 2582.5,1384.5 2582.5,1426.5C 2575.47,1426.83 2568.47,1426.5 2561.5,1425.5C 2561.29,1424.91 2560.96,1424.41 2560.5,1424C 2561.33,1382.92 2561.67,1341.75 2561.5,1300.5C 2540.83,1300.5 2520.17,1300.5 2499.5,1300.5C 2499.5,1294.5 2499.5,1288.5 2499.5,1282.5 Z"/></g>
<g><path style="opacity:0.952" fill="#1f1c1f" d="M 3010.5,1282.5 C 3040.17,1282.33 3069.84,1282.5 3099.5,1283C 3131.68,1286.86 3143.18,1304.36 3134,1335.5C 3127.27,1345.79 3117.77,1351.96 3105.5,1354C 3117.27,1354.63 3125.1,1360.46 3129,1371.5C 3132.41,1389.94 3136.24,1408.27 3140.5,1426.5C 3132.91,1426.81 3125.41,1426.48 3118,1425.5C 3114.13,1409.95 3110.8,1394.29 3108,1378.5C 3103.82,1368.8 3096.32,1363.64 3085.5,1363C 3067.84,1362.5 3050.17,1362.33 3032.5,1362.5C 3032.5,1383.83 3032.5,1405.17 3032.5,1426.5C 3025.17,1426.5 3017.83,1426.5 3010.5,1426.5C 3010.5,1378.5 3010.5,1330.5 3010.5,1282.5 Z M 3032.5,1299.5 C 3054.54,1299.07 3076.54,1299.57 3098.5,1301C 3109.47,1303.65 3114.81,1310.65 3114.5,1322C 3114.84,1333.33 3109.5,1340.33 3098.5,1343C 3094.56,1343.99 3090.56,1344.66 3086.5,1345C 3068.5,1345.5 3050.5,1345.67 3032.5,1345.5C 3032.5,1330.17 3032.5,1314.83 3032.5,1299.5 Z"/></g>
<g><path style="opacity:0.988" fill="#1f1c1f" d="M 3252.5,1282.5 C 3259.5,1282.5 3266.5,1282.5 3273.5,1282.5C 3273.5,1330.5 3273.5,1378.5 3273.5,1426.5C 3266.5,1426.5 3259.5,1426.5 3252.5,1426.5C 3252.5,1378.5 3252.5,1330.5 3252.5,1282.5 Z"/></g>
<g><path style="opacity:0.961" fill="#1f1c1f" d="M 3392.5,1282.5 C 3428.83,1282.5 3465.17,1282.5 3501.5,1282.5C 3501.5,1288.17 3501.5,1293.83 3501.5,1299.5C 3472.5,1299.5 3443.5,1299.5 3414.5,1299.5C 3414.5,1314.17 3414.5,1328.83 3414.5,1343.5C 3441.5,1343.5 3468.5,1343.5 3495.5,1343.5C 3495.5,1349.17 3495.5,1354.83 3495.5,1360.5C 3468.5,1360.5 3441.5,1360.5 3414.5,1360.5C 3414.82,1376.74 3414.49,1392.91 3413.5,1409C 3443.5,1409.5 3473.5,1409.67 3503.5,1409.5C 3503.5,1415.17 3503.5,1420.83 3503.5,1426.5C 3466.5,1426.5 3429.5,1426.5 3392.5,1426.5C 3392.5,1378.5 3392.5,1330.5 3392.5,1282.5 Z"/></g>
</svg>
